# xmcd
#
# Track frame offsets: 
#        150
#        26507
#        48890
#        78795
#        98222
#        116090
#        140132
#        161892
#        182345
#        198564
#        220704
#        238453
#        257334
#
# Disc length: 3699 seconds
#
# Revision: 11
# Processed by: cddbd v1.5.2PL0 Copyright (c) Steve Scherf et al.
# Submitted via: ExactAudioCopy v1.0b1
#
DISCID=b10e710d
DTITLE=B.B. King - Deuces Wild
DYEAR=1997
DGENRE=Blues
TTITLE0=If You Love Me (with Van Morrison)
TTITLE1=The Thrill Is Gone (with Tracy Chapman)
TTITLE2=Rock Me Baby (with Eric Clapton)
TTITLE3=Please Send Me Someone to Love (with Mick Hucknall)
TTITLE4=Baby I Love You (with Bonnie Raitt)
TTITLE5=Ain't Nobody Home (with D'Angelo)
TTITLE6=There Must Be a Better World Somewhere (with Dr. John)
TTITLE7=Confessin' the Blues (with Marty Stuart)
TTITLE8=Paying the Cost to Be the Boss (with The Rolling Stones)
TTITLE9=Dangerous Mood (with Joe Cocker)
TTITLE10=Keep It Coming (with Heavy D)
TTITLE11=Cryin' Won't Help You Babe (with David Gilmour and Paul Carrack
TTITLE11=)
TTITLE12=Night Life (with Willie Nelson)
EXTD=YEAR: 1997
EXTT0=
EXTT1=
EXTT2=
EXTT3=
EXTT4=
EXTT5=
EXTT6=
EXTT7=
EXTT8=
EXTT9=
EXTT10=
EXTT11=
EXTT12=
PLAYORDER=
